<svg xmlns="http://www.w3.org/2000/svg" width="512" height="512" viewBox="0 0 512 512" version="1.1"><path d="" stroke="none" fill="#080404" fill-rule="evenodd"/><path d="M 151.137 1.369 C 146.065 3.205, 140.531 8.340, 138.138 13.430 C 135.793 18.418, 135.281 26.978, 137.048 31.627 C 138.062 34.293, 137.477 35.005, 119.369 53.131 L 100.642 71.878 83.071 72.189 C 66.766 72.478, 65.275 72.661, 62.373 74.730 C 55.797 79.421, 55.919 78.176, 56.225 137.205 C 56.491 188.712, 56.567 190.590, 58.500 193.182 C 59.600 194.658, 62.148 196.802, 64.163 197.948 C 67.812 200.022, 68.186 200.029, 161.163 199.765 C 251.831 199.508, 254.573 199.444, 257.057 197.557 C 258.463 196.488, 260.488 194.463, 261.557 193.057 C 263.416 190.610, 263.512 188.207, 263.775 137.182 C 264.047 84.655, 264.020 83.808, 261.958 80.182 C 257.835 72.931, 256.603 72.537, 236.929 72.189 L 219.358 71.878 200.631 53.131 C 182.523 35.005, 181.938 34.293, 182.952 31.627 C 185.916 23.832, 183.394 13.339, 177.028 6.972 C 170.439 0.383, 160.065 -1.862, 151.137 1.369 M 157.465 16.961 C 149.848 20.014, 151.844 31.333, 160 31.333 C 164.052 31.333, 167.333 28.052, 167.333 24 C 167.333 18.989, 161.963 15.158, 157.465 16.961 M 136.512 58.988 L 123.529 72 160.010 72 L 196.491 72 183.466 58.975 L 170.441 45.950 167.167 47.092 C 163.966 48.207, 153.983 47.921, 150.998 46.627 C 149.955 46.175, 145.525 49.955, 136.512 58.988 M 72 136 L 72 184 74.257 184 C 75.876 184, 83.864 176.646, 102.500 158 C 133.899 126.583, 131.188 127.752, 143.736 140.235 L 152.014 148.470 174.265 126.235 C 194.747 105.768, 196.793 104, 200 104 C 203.207 104, 205.254 105.769, 225.742 126.242 L 248 148.483 248 118.242 L 248 88 160 88 L 72 88 72 136 M 146.174 106.314 C 141.208 111.601, 144.870 120, 152.140 120 C 156.756 120, 160 116.640, 160 111.860 C 160 104.760, 151.019 101.157, 146.174 106.314 M 181.503 141.997 L 163.526 159.995 175.497 171.997 L 187.469 184 217.734 184 L 248 184 248 177.742 L 248 171.484 224.242 147.742 C 211.176 134.684, 200.258 124, 199.982 124 C 199.705 124, 191.390 132.099, 181.503 141.997 M 115.500 168 L 99.523 184 132 184 L 164.477 184 148.500 168 C 139.713 159.200, 132.288 152, 132 152 C 131.712 152, 124.287 159.200, 115.500 168 M 386.272 162.250 C 384.681 163.975, 382.305 173.020, 376.094 201 C 371.638 221.075, 367.994 238.884, 367.996 240.576 C 367.999 242.494, 368.871 244.469, 370.314 245.826 C 372.544 247.920, 373.426 248, 394.314 248 L 416 248 416 272 L 416 296 409.866 296 C 400.947 296, 396.189 297.756, 390.972 302.972 C 385.765 308.180, 384 312.947, 384 321.807 L 384 327.881 364.750 328.191 C 346.703 328.481, 345.305 328.639, 342.373 330.730 C 335.686 335.500, 336 330.922, 336 423.727 L 336 507.651 338.314 509.826 C 340.537 511.913, 341.452 512, 361.314 512 C 379.879 512, 382.184 511.816, 383.795 510.205 C 384.782 509.218, 388.430 500.218, 391.901 490.205 L 398.213 472 423.994 472 L 449.775 472 454.551 485.750 C 462.409 508.373, 463.069 509.967, 465.008 511.004 C 466.069 511.572, 475.629 512, 487.247 512 L 507.626 512 510.346 509.161 L 513.066 506.321 512.783 423.411 L 512.500 340.500 510.182 336.500 C 505.709 328.780, 504.927 328.539, 483.250 328.191 L 464 327.881 463.990 321.191 C 463.978 312.945, 460.921 305.729, 455.573 301.321 C 450.957 297.516, 445.988 296, 438.134 296 L 432 296 432 272 L 432 248 453.826 248 C 475.347 248, 475.682 247.968, 477.826 245.686 C 479.036 244.398, 480.002 242.069, 480.004 240.436 C 480.006 238.821, 476.362 221.075, 471.906 201 C 465.695 173.020, 463.319 163.975, 461.728 162.250 L 459.651 160 424 160 L 388.349 160 386.272 162.250 M 398.534 177.233 C 398.305 177.930, 395.461 190.537, 392.214 205.250 L 386.312 232 423.993 232 L 461.675 232 455.507 204.250 L 449.339 176.500 424.145 176.233 C 404.503 176.024, 398.859 176.245, 398.534 177.233 M 47 241.314 C 42.147 242.852, 34.725 250.556, 33.222 255.616 C 32.363 258.508, 32 269.883, 32 293.866 L 32 328 25.866 328 C 17.828 328, 12.853 329.578, 8.122 333.628 C 0.543 340.115, 1 334.173, 1 426.246 C 1 504.846, 1.085 508.767, 2.829 510.345 C 4.422 511.787, 7.700 512, 28.240 512 L 51.822 512 54.161 509.169 C 55.447 507.613, 59.411 500.413, 62.969 493.169 L 69.439 480 160 480 L 250.561 480 257.031 493.169 C 260.589 500.413, 264.553 507.613, 265.839 509.169 L 268.178 512 291.915 512 C 315.433 512, 315.671 511.979, 317.826 509.686 L 320 507.371 319.990 426.936 L 319.980 346.500 317.619 341.429 C 313.359 332.280, 305.874 328, 294.134 328 L 288 328 287.990 293.250 C 287.981 258.836, 287.958 258.451, 285.619 253.429 C 282.913 247.617, 277.600 242.796, 272.078 241.141 C 266.765 239.550, 52.047 239.714, 47 241.314 M 53.020 257.277 C 48.234 259.713, 48.030 261.277, 48.015 295.750 L 48 328 59.930 328 L 71.859 328 72.180 312.750 C 72.471 298.862, 72.699 297.221, 74.730 294.373 C 79.105 288.240, 81.173 287.870, 109.252 288.202 C 137.510 288.536, 137.626 288.564, 141.932 296.136 C 143.753 299.338, 144 301.457, 144 313.886 L 144 328 159.930 328 L 175.859 328 176.180 312.750 C 176.471 298.862, 176.699 297.221, 178.730 294.373 C 183.105 288.240, 185.173 287.870, 213.252 288.202 C 241.510 288.536, 241.626 288.564, 245.932 296.136 C 247.753 299.338, 248 301.457, 248 313.886 L 248 328 260.038 328 L 272.077 328 271.788 294.527 C 271.501 261.208, 271.489 261.043, 269.222 258.777 L 266.945 256.500 161.222 256.257 C 77.681 256.066, 54.980 256.280, 53.020 257.277 M 88 316 L 88 328 108 328 L 128 328 128 316 L 128 304 108 304 L 88 304 88 316 M 192 316 L 192 328 212 328 L 232 328 232 316 L 232 304 212 304 L 192 304 192 316 M 405.020 313.251 C 401.743 314.953, 400.033 318.540, 400.015 323.750 L 400 328 424.124 328 L 448.248 328 447.787 322.441 C 447.458 318.483, 446.695 316.250, 445.138 314.691 C 443.074 312.624, 441.944 312.485, 425.225 312.231 C 412.262 312.035, 406.834 312.309, 405.020 313.251 M 21.020 345.279 C 16.301 347.677, 16.031 349.542, 16.015 379.750 L 16 408 160.043 408 L 304.085 408 303.793 378.526 C 303.503 349.374, 303.475 349.028, 301.222 346.776 L 298.945 344.500 161.222 344.259 C 52.013 344.068, 22.986 344.279, 21.020 345.279 M 352 368 L 352 392 424 392 L 496 392 496 368 L 496 344 424 344 L 352 344 352 368 M 402.174 362.314 C 399.195 365.486, 399.261 370.957, 402.314 373.826 C 404.527 375.905, 405.484 376, 424.140 376 C 443.242 376, 443.697 375.951, 445.826 373.686 C 448.805 370.514, 448.739 365.043, 445.686 362.174 C 443.473 360.095, 442.516 360, 423.860 360 C 404.758 360, 404.303 360.049, 402.174 362.314 M 352 432 L 352 456 424 456 L 496 456 496 432 L 496 408 424 408 L 352 408 352 432 M 16 460 L 16 496 29.281 496 L 42.561 496 49.031 482.831 C 52.589 475.587, 56.553 468.387, 57.839 466.831 L 60.178 464 160 464 L 259.822 464 262.161 466.831 C 263.447 468.387, 267.411 475.587, 270.969 482.831 L 277.439 496 290.719 496 L 304 496 304 460 L 304 424 160 424 L 16 424 16 460 M 402.174 426.314 C 399.195 429.486, 399.261 434.957, 402.314 437.826 C 404.527 439.905, 405.484 440, 424.140 440 C 443.242 440, 443.697 439.951, 445.826 437.686 C 448.805 434.514, 448.739 429.043, 445.686 426.174 C 443.473 424.095, 442.516 424, 423.860 424 C 404.758 424, 404.303 424.049, 402.174 426.314 M 352 484.035 L 352 496.070 362.112 495.785 L 372.224 495.500 376.103 484.500 C 378.236 478.450, 379.986 473.163, 379.991 472.750 C 379.996 472.337, 373.700 472, 366 472 L 352 472 352 484.035 M 468.040 472.750 C 468.062 473.163, 469.803 478.450, 471.908 484.500 L 475.737 495.500 485.868 495.785 L 496 496.070 496 484.035 L 496 472 482 472 C 474.300 472, 468.018 472.337, 468.040 472.750" stroke="none" fill="#040404" fill-rule="evenodd"/></svg>