<?xml version="1.0" standalone="no"?>
<!DOCTYPE svg PUBLIC "-//W3C//DTD SVG 20010904//EN"
 "http://www.w3.org/TR/2001/REC-SVG-20010904/DTD/svg10.dtd">
<svg version="1.0" xmlns="http://www.w3.org/2000/svg"
 width="512.000000pt" height="512.000000pt" viewBox="0 0 512.000000 512.000000"
 preserveAspectRatio="xMidYMid meet">

<g transform="translate(0.000000,512.000000) scale(0.100000,-0.100000)"
fill="#000000" stroke="none">
<path d="M792 4887 l-22 -23 0 -2305 0 -2306 23 -21 c30 -28 68 -28 95 1 20
21 22 34 22 140 l0 117 175 0 175 0 0 -115 c0 -110 1 -117 25 -140 30 -31 65
-32 93 -2 20 21 22 34 22 140 l0 117 175 0 175 0 0 -115 c0 -110 1 -117 25
-140 29 -30 68 -32 95 -5 18 18 20 33 20 140 l0 120 174 0 174 0 4 -121 c3
-113 5 -122 27 -140 30 -25 66 -24 91 1 18 18 20 33 20 140 l0 120 180 0 180
0 0 -120 c0 -107 2 -122 20 -140 25 -25 61 -26 91 -1 22 18 24 27 27 140 l4
121 174 0 174 0 0 -120 c0 -107 2 -122 20 -140 27 -27 66 -25 95 5 24 23 25
30 25 140 l0 115 175 0 175 0 0 -118 c0 -111 1 -120 23 -140 30 -29 62 -28 92
3 24 23 25 30 25 140 l0 115 175 0 175 0 0 -118 c0 -111 1 -120 23 -140 30
-28 68 -28 95 1 l22 23 0 2305 0 2306 -23 21 c-30 28 -68 28 -95 -1 -20 -21
-22 -34 -22 -140 l0 -117 -175 0 -175 0 0 115 c0 110 -1 117 -25 140 -30 31
-65 32 -93 2 -20 -21 -22 -34 -22 -140 l0 -117 -175 0 -175 0 0 115 c0 110 -1
117 -25 140 -29 30 -68 32 -95 5 -18 -18 -20 -33 -20 -140 l0 -120 -174 0
-174 0 -4 121 c-3 113 -5 122 -27 140 -30 25 -66 24 -91 -1 -18 -18 -20 -33
-20 -140 l0 -120 -180 0 -180 0 0 120 c0 107 -2 122 -20 140 -25 25 -61 26
-91 1 -22 -18 -24 -27 -27 -140 l-4 -121 -174 0 -174 0 0 120 c0 107 -2 122
-20 140 -27 27 -66 25 -95 -5 -24 -23 -25 -30 -25 -140 l0 -115 -175 0 -175 0
0 118 c0 111 -1 120 -23 140 -30 29 -62 28 -92 -3 -24 -23 -25 -30 -25 -140
l0 -115 -175 0 -175 0 0 118 c0 111 -1 120 -23 140 -30 28 -68 28 -95 -1z
m3418 -2327 l0 -1930 -1650 0 -1650 0 0 1930 0 1930 1650 0 1650 0 0 -1930z"/>
<path d="M1472 4247 c-13 -13 -22 -36 -22 -53 0 -123 -121 -244 -245 -244 -20
0 -39 -8 -53 -23 l-22 -23 0 -1345 0 -1346 23 -21 c13 -13 36 -22 53 -22 123
0 244 -121 244 -245 0 -20 8 -39 23 -53 l23 -22 1065 0 1066 0 21 23 c13 13
22 36 22 53 0 123 121 244 245 244 20 0 39 8 53 23 l22 23 0 1345 0 1346 -23
21 c-13 13 -36 22 -53 22 -123 0 -244 121 -244 245 0 20 -8 39 -23 53 l-23 22
-1065 0 -1066 0 -21 -23z m2075 -160 c7 -24 30 -71 53 -105 46 -68 135 -136
207 -155 l43 -11 0 -1258 c0 -1215 -1 -1258 -18 -1258 -35 0 -142 -61 -188
-108 -46 -45 -104 -149 -104 -184 0 -17 -53 -18 -980 -18 -945 0 -980 1 -980
18 0 35 -61 142 -108 188 -45 46 -149 104 -184 104 -17 0 -18 67 -18 1260 0
1193 1 1260 18 1260 35 0 139 58 184 104 47 46 108 153 108 188 0 17 35 18
978 18 l978 0 11 -43z"/>
<path d="M2032 3087 c-395 -395 -502 -507 -502 -527 0 -37 993 -1030 1030
-1030 37 0 1030 993 1030 1030 0 37 -993 1030 -1030 1030 -20 0 -132 -107
-528 -503z m963 -97 l430 -430 -433 -433 -432 -432 -432 432 -433 433 430 430
c236 236 432 430 435 430 3 0 199 -194 435 -430z"/>
<path d="M2463 2896 c-103 -34 -176 -98 -222 -196 -22 -46 -26 -69 -26 -140 0
-76 4 -93 33 -152 38 -77 92 -130 171 -167 47 -22 70 -26 141 -26 71 0 94 4
141 26 79 37 133 90 171 167 29 59 33 76 33 152 0 71 -4 94 -26 141 -58 124
-169 199 -302 205 -43 3 -89 -2 -114 -10z m162 -137 c23 -7 57 -28 81 -53 85
-84 85 -208 0 -292 -79 -80 -199 -85 -283 -11 -90 79 -97 211 -15 299 57 60
132 80 217 57z"/>
<path d="M1629 3491 c-20 -20 -29 -39 -29 -61 0 -43 47 -90 90 -90 43 0 90 47
90 90 0 43 -47 90 -90 90 -22 0 -41 -9 -61 -29z"/>
<path d="M3369 3491 c-20 -20 -29 -39 -29 -61 0 -43 47 -90 90 -90 22 0 41 9
61 29 20 20 29 39 29 61 0 22 -9 41 -29 61 -20 20 -39 29 -61 29 -22 0 -41 -9
-61 -29z"/>
<path d="M1629 1751 c-20 -20 -29 -39 -29 -61 0 -43 47 -90 90 -90 43 0 90 47
90 90 0 22 -9 41 -29 61 -20 20 -39 29 -61 29 -22 0 -41 -9 -61 -29z"/>
<path d="M3369 1751 c-20 -20 -29 -39 -29 -61 0 -43 47 -90 90 -90 43 0 90 47
90 90 0 43 -47 90 -90 90 -22 0 -41 -9 -61 -29z"/>
</g>
</svg>
