<?xml version="1.0" standalone="no"?>
<!DOCTYPE svg PUBLIC "-//W3C//DTD SVG 20010904//EN"
 "http://www.w3.org/TR/2001/REC-SVG-20010904/DTD/svg10.dtd">
<svg version="1.0" xmlns="http://www.w3.org/2000/svg"
 width="512.000000pt" height="512.000000pt" viewBox="0 0 512.000000 512.000000"
 preserveAspectRatio="xMidYMid meet">

<g transform="translate(0.000000,512.000000) scale(0.100000,-0.100000)"
fill="#000000" stroke="none">
<path d="M230 4725 c-104 -33 -164 -117 -165 -230 0 -59 4 -77 28 -118 52 -88
160 -139 250 -118 l37 9 0 -1915 0 -1915 29 -29 30 -29 676 2 677 3 19 24 c10
13 19 37 19 55 0 17 -63 377 -140 800 -105 579 -146 782 -164 822 -46 100
-166 199 -266 219 -75 14 -70 6 -70 125 l0 109 84 39 c171 81 324 211 424 363
32 47 212 397 402 777 l345 692 115 0 115 0 345 -692 c190 -380 371 -731 402
-778 62 -94 190 -223 280 -283 32 -21 96 -56 143 -79 l85 -40 0 -109 c0 -118
5 -110 -70 -124 -100 -20 -220 -119 -266 -219 -18 -41 -59 -242 -164 -822 -77
-423 -140 -783 -140 -800 0 -18 9 -42 19 -55 l19 -24 681 0 680 0 23 23 23 23
3 1918 2 1919 36 -9 c49 -14 133 5 183 41 22 16 52 51 68 77 23 40 28 59 28
118 0 58 -5 78 -28 117 -65 112 -203 156 -312 101 -39 -20 -93 -71 -111 -105
l-15 -28 -2029 0 -2029 0 -15 28 c-18 34 -72 85 -112 105 -46 24 -122 29 -174
12z m101 -155 c21 0 49 -42 49 -72 0 -73 -95 -108 -139 -52 -12 15 -21 36 -21
48 0 43 54 92 88 80 8 -2 18 -4 23 -4z m4547 -26 c28 -31 28 -64 1 -98 -44
-56 -139 -22 -139 49 0 78 85 108 138 49z m-300 -966 c1 -461 -1 -838 -5 -838
-11 0 -62 64 -117 145 -165 243 -288 636 -336 1073 -15 134 -31 442 -24 453 3
6 100 8 242 7 l237 -3 3 -837z m-3548 823 c0 -5 -5 -89 -11 -187 -31 -540
-136 -963 -314 -1263 -57 -96 -142 -211 -156 -211 -5 0 -9 376 -9 835 l0 835
245 0 c136 0 245 -4 245 -9z m476 -103 c-43 -688 -271 -1233 -665 -1590 -65
-60 -79 -68 -114 -68 -37 0 -39 1 -26 19 103 139 137 192 183 282 171 329 263
719 296 1239 5 91 10 180 10 198 l0 32 161 0 162 0 -7 -112z m754 107 c0 -21
-677 -1353 -712 -1400 -87 -117 -195 -208 -323 -272 -62 -31 -164 -68 -170
-61 -2 1 30 44 72 93 258 310 439 736 507 1200 19 126 36 312 36 388 l0 57
295 0 c162 0 295 -2 295 -5z m1190 -52 c0 -76 17 -262 36 -388 71 -483 260
-918 535 -1232 27 -31 47 -58 45 -61 -8 -7 -107 29 -176 63 -122 61 -233 155
-318 270 -35 47 -712 1378 -712 1400 0 3 133 5 295 5 l295 0 0 -57z m480 25
c0 -62 20 -353 31 -448 40 -358 123 -675 243 -925 67 -140 107 -206 181 -300
l46 -60 -35 -3 c-41 -4 -57 7 -155 101 -150 145 -261 298 -361 497 -157 316
-240 643 -266 1058 l-7 112 162 0 161 0 0 -32z m-2900 -1978 l0 -80 -245 0
-245 0 0 80 0 80 245 0 245 0 0 -80z m3550 0 l0 -80 -245 0 -245 0 0 80 0 80
245 0 245 0 0 -80z m-3943 -266 c45 -34 116 -131 158 -214 91 -181 163 -470
200 -800 20 -182 38 -561 27 -572 -5 -5 -114 -7 -243 -6 l-234 3 -3 795 c-1
437 0 801 3 808 8 21 56 13 92 -14z m629 -1 c51 -27 108 -90 123 -134 12 -40
261 -1406 261 -1438 0 -21 -2 -21 -229 -21 l-229 0 -6 158 c-14 330 -39 558
-86 793 -47 234 -136 481 -217 601 -16 24 -33 49 -37 56 -7 12 25 13 185 10
175 -3 198 -5 235 -25z m3008 15 c-5 -7 -21 -32 -37 -55 -82 -123 -169 -363
-217 -603 -48 -238 -71 -451 -86 -792 l-7 -158 -227 0 c-125 0 -229 2 -231 5
-9 9 257 1450 273 1480 19 35 72 87 108 106 45 23 83 27 258 28 136 1 172 -2
166 -11z m301 -798 l0 -805 -234 -3 c-129 -1 -239 2 -243 6 -12 12 7 388 27
572 54 476 170 821 331 987 46 47 58 54 86 51 l33 -3 0 -805z"/>
</g>
</svg>
