<?xml version="1.0" standalone="no"?>
<!DOCTYPE svg PUBLIC "-//W3C//DTD SVG 20010904//EN"
 "http://www.w3.org/TR/2001/REC-SVG-20010904/DTD/svg10.dtd">
<svg version="1.0" xmlns="http://www.w3.org/2000/svg"
 width="512.000000pt" height="512.000000pt" viewBox="0 0 512.000000 512.000000"
 preserveAspectRatio="xMidYMid meet">

<g transform="translate(0.000000,512.000000) scale(0.100000,-0.100000)"
fill="#000000" stroke="none">
<path d="M202 5105 c-67 -29 -62 169 -62 -2545 0 -2722 -5 -2516 64 -2545 53
-22 2499 -22 2552 0 69 29 64 -177 64 2545 0 2104 -2 2466 -14 2495 -29 69 61
65 -1323 65 -1059 -1 -1253 -3 -1281 -15z m2398 -2545 l0 -2340 -1120 0 -1120
0 0 2340 0 2340 1120 0 1120 0 0 -2340z"/>
<path d="M648 4663 c-14 -9 -31 -27 -37 -40 -8 -17 -11 -407 -11 -1288 l0
-1263 29 -30 c17 -16 44 -32 62 -36 53 -10 1510 -7 1550 4 19 6 46 22 60 36
l24 26 3 1241 c1 683 0 1257 -3 1276 -4 20 -20 47 -37 63 l-30 28 -792 0
c-719 -1 -793 -2 -818 -17z m1462 -1323 l0 -1120 -645 0 -645 0 0 1120 0 1120
645 0 645 0 0 -1120z"/>
<path d="M691 1767 c-19 -7 -44 -25 -55 -40 -21 -28 -21 -36 -21 -591 0 -527
1 -564 18 -590 39 -58 16 -57 868 -54 l781 3 28 32 c18 20 31 48 35 75 3 24 5
280 3 570 -3 516 -3 527 -24 555 -11 15 -36 33 -55 40 -49 17 -1529 17 -1578
0z m1439 -632 l0 -425 -650 0 -650 0 0 418 c0 230 3 422 7 425 3 4 296 7 650
7 l643 0 0 -425z"/>
<path d="M3284 4646 l-34 -34 0 -1261 c0 -1068 2 -1266 14 -1289 31 -59 -2
-57 857 -57 l789 0 32 33 33 32 3 1248 c2 864 0 1258 -8 1284 -6 20 -22 46
-37 57 -25 21 -34 21 -820 21 l-795 0 -34 -34z m716 -691 l0 -505 -265 0 -265
0 0 505 0 505 265 0 265 0 0 -505z m760 0 l0 -505 -270 0 -270 0 0 505 0 505
270 0 270 0 0 -505z m-760 -1230 l0 -505 -265 0 -265 0 0 505 0 505 265 0 265
0 0 -505z m760 0 l0 -505 -270 0 -270 0 0 505 0 505 270 0 270 0 0 -505z"/>
</g>
</svg>
