<?xml version="1.0" standalone="no"?>
<!DOCTYPE svg PUBLIC "-//W3C//DTD SVG 20010904//EN"
 "http://www.w3.org/TR/2001/REC-SVG-20010904/DTD/svg10.dtd">
<svg version="1.0" xmlns="http://www.w3.org/2000/svg"
 width="512.000000pt" height="512.000000pt" viewBox="0 0 512.000000 512.000000"
 preserveAspectRatio="xMidYMid meet">

<g transform="translate(0.000000,512.000000) scale(0.100000,-0.100000)"
fill="#000000" stroke="none">
<path d="M2585 5111 c-11 -5 -29 -19 -40 -31 -20 -22 -20 -38 -23 -751 l-2
-729 -461 0 c-435 0 -461 1 -456 18 3 9 22 62 42 116 65 178 125 457 125 579
0 62 -39 107 -93 107 -62 0 -242 -141 -407 -318 l-87 -94 -7 79 c-22 247 -157
707 -227 772 -34 31 -91 28 -128 -6 -74 -70 -196 -486 -226 -770 l-7 -61 -122
122 c-154 156 -313 276 -362 276 -79 0 -110 -47 -100 -154 20 -205 98 -497
182 -675 24 -51 44 -98 44 -102 0 -5 -27 -9 -60 -9 -34 0 -73 -6 -89 -14 -26
-14 -51 -53 -51 -81 0 -11 220 -924 236 -977 4 -13 -2 -19 -23 -24 -69 -16
-171 -100 -206 -170 -80 -161 -25 -345 133 -446 l45 -29 5 -839 5 -840 28 -27
c38 -38 96 -38 134 0 l28 27 3 830 2 830 1190 0 1190 0 2 -830 3 -830 28 -27
c38 -38 96 -38 134 0 l28 27 3 829 2 828 48 7 c140 19 254 129 283 274 13 60
7 127 -16 185 -7 16 38 17 858 17 617 0 873 3 891 11 13 6 31 25 41 43 15 28
16 148 13 1418 l-3 1388 -28 27 -27 28 -1228 2 c-675 1 -1236 -2 -1247 -6z
m2335 -1451 l0 -1260 -905 0 -905 0 0 284 0 284 -26 31 c-14 17 -32 31 -39 31
-24 0 -24 14 -3 75 28 82 22 188 -15 267 -49 107 -163 201 -266 217 l-36 6 -3
663 -2 662 1100 0 1100 0 0 -1260z m-3996 700 c47 -188 59 -299 59 -510 -1
-112 -7 -231 -15 -280 l-13 -85 -67 -3 c-65 -3 -66 -3 -72 25 -21 106 -29 210
-28 358 0 208 22 362 83 590 14 50 20 40 53 -95z m-551 -408 c43 -48 109 -133
147 -188 59 -86 71 -111 79 -165 6 -35 11 -76 11 -91 0 -28 0 -28 -70 -28
l-70 0 -26 42 c-66 105 -174 387 -200 522 l-7 40 29 -22 c16 -13 64 -62 107
-110z m1135 16 c-57 -214 -125 -367 -196 -440 -44 -45 -49 -48 -99 -48 -60 0
-59 -3 -42 100 11 69 49 139 137 255 58 76 211 245 222 245 5 0 -5 -51 -22
-112z m1248 -587 c61 -28 97 -80 101 -149 5 -69 -15 -112 -70 -156 l-39 -31
-641 -3 -642 -3 -17 22 c-15 18 -18 43 -18 160 0 126 2 141 20 159 20 20 33
20 643 20 586 0 624 -2 663 -19z m-1526 -198 c0 -54 3 -114 6 -134 6 -35 5
-37 -47 -66 -154 -87 -239 -261 -209 -429 6 -37 20 -84 31 -105 10 -21 19 -41
19 -44 0 -3 -125 -5 -278 -5 l-278 0 -104 423 c-57 232 -105 430 -108 440 -4
16 24 17 482 17 l486 0 0 -97z m327 -367 c-54 -82 -62 -266 -15 -364 l25 -52
-111 0 c-131 0 -173 15 -228 80 -74 85 -72 198 3 284 53 60 97 74 233 75 l108
1 -15 -24z m1353 -196 l0 -220 -506 0 c-356 0 -518 3 -545 12 -97 28 -155 119
-147 228 6 80 43 135 117 173 l55 27 513 0 513 0 0 -220z m149 -438 c101 -51
106 -183 9 -242 -33 -20 -54 -20 -1398 -20 -1344 0 -1365 0 -1398 20 -97 59
-92 191 9 242 32 17 119 18 1389 18 1270 0 1357 -1 1389 -18z"/>
<path d="M2985 4711 c-11 -5 -29 -19 -40 -31 -19 -21 -20 -36 -20 -467 l0
-445 28 -24 c38 -33 96 -33 134 0 l28 24 3 376 3 376 699 0 700 0 0 -860 0
-859 -344 -3 -344 -3 -26 -24 c-31 -30 -42 -73 -26 -112 25 -58 31 -59 465
-59 432 0 441 1 464 57 8 21 11 285 9 1015 l-3 988 -28 27 -27 28 -828 2
c-455 1 -836 -2 -847 -6z"/>
<path d="M3755 4169 c-26 -13 -6 19 -263 -424 -132 -228 -216 -384 -219 -406
-4 -30 0 -42 25 -70 l30 -34 449 -3 c477 -3 510 -1 539 43 35 54 28 72 -205
476 -122 211 -233 394 -247 407 -27 23 -73 28 -109 11z m179 -512 c69 -121
126 -221 126 -223 0 -2 -115 -4 -256 -4 -238 0 -256 1 -250 17 10 25 248 434
251 431 1 -2 59 -101 129 -221z"/>
<path d="M3448 2784 c-54 -29 -66 -102 -24 -151 20 -23 32 -28 71 -28 39 0 51
5 71 28 26 30 32 83 14 118 -12 22 -61 49 -87 49 -10 -1 -30 -7 -45 -16z"/>
</g>
</svg>
