<svg xmlns="http://www.w3.org/2000/svg" width="512" height="512" viewBox="0 0 512 512" version="1.1"><path d="M 6.861 2.448 L 3.259 4.896 1.629 8.968 C -0.549 14.414, -0.427 16.878, 2.275 21.987 L 4.550 26.289 8.009 28.145 L 11.469 30 43.234 30 L 75 30 74.998 53.750 L 74.995 77.500 69.423 80.412 C 59.272 85.716, 51.858 94.549, 48.037 105.890 L 46 111.937 46 119.879 L 46 127.822 47.850 133.765 C 52.459 148.575, 64.881 160.180, 80.262 164.046 L 85.024 165.243 93.779 164.825 L 102.535 164.406 109.305 161.238 L 116.075 158.070 121.879 152.534 C 134.055 140.920, 138.679 124.707, 134.448 108.460 C 132.505 100.998, 128.995 94.945, 122.824 88.413 L 118.018 83.326 112.063 80.413 L 106.108 77.500 106.054 53.750 L 106 30 150.500 30 L 195 30 195 53.829 L 195 77.658 189.786 80.079 L 184.573 82.500 178.958 88 L 173.344 93.500 170.205 100 L 167.067 106.500 165.937 113.214 L 164.807 119.928 165.978 126.867 L 167.148 133.805 169.955 139.653 C 173.612 147.270, 179.047 153.428, 186.187 158.043 L 191.942 161.762 198.389 163.507 L 204.836 165.252 213.668 164.794 L 222.500 164.335 229 161.335 L 235.500 158.335 241.113 153.192 L 246.726 148.050 250.341 141.170 L 253.957 134.290 255.182 127.146 L 256.407 120.003 255.290 113.486 L 254.174 106.969 251.115 100.433 L 248.057 93.897 242.278 88.136 L 236.500 82.375 231.291 79.937 L 226.082 77.500 226.041 53.750 L 226 30 258.250 29.996 L 290.500 29.993 293.759 28.005 C 295.552 26.912, 297.912 24.552, 299.005 22.759 L 300.993 19.500 300.993 15 L 300.993 10.500 299.005 7.241 C 297.912 5.448, 295.552 3.088, 293.759 1.995 L 290.500 0.007 150.482 0.004 L 10.464 0 6.861 2.448 M 382.898 50.270 C 378.758 53.035, 376.004 58.220, 376.002 63.250 L 376 67 364.250 67.031 C 357.788 67.048, 349.207 67.489, 345.183 68.012 L 337.865 68.962 331.613 71.946 C 320.163 77.411, 312.161 86.407, 308.004 98.487 L 306 104.313 306 115.517 L 306 126.721 300.931 127.322 L 295.862 127.922 292.538 129.977 L 289.213 132.032 287.606 135.417 L 286 138.802 286 143.253 L 286 147.704 288.270 151.102 C 289.518 152.971, 292.106 155.287, 294.020 156.248 L 297.500 157.997 301.750 157.998 L 306 158 306 186.257 L 306 214.513 306.927 217.747 L 307.855 220.981 159.001 221.240 L 10.146 221.500 7.385 223.562 C 5.866 224.696, 3.696 226.866, 2.562 228.385 L 0.500 231.146 0.239 365.340 L -0.021 499.533 2.239 503.942 L 4.500 508.352 7.984 510.176 L 11.469 512 256 512 L 500.531 512 504.016 510.168 L 507.500 508.335 510.169 503.418 L 512.837 498.500 512.919 365.191 L 513 231.882 512 232.500 L 511 233.118 511 231.636 C 511 229.299, 505.916 223.863, 502.329 222.364 L 499.064 221 486.915 221 L 474.767 221 475.553 218.750 C 475.986 217.513, 476.518 203.392, 476.737 187.371 L 477.134 158.242 482.141 157.760 L 487.149 157.279 489.763 155.328 C 491.200 154.255, 493.304 152.134, 494.438 150.615 L 496.500 147.853 496.500 142.500 L 496.500 137.147 494.441 134.323 C 493.309 132.770, 490.401 130.488, 487.980 129.250 L 483.576 127 480.288 127 L 477 127 476.985 117.750 L 476.970 108.500 475.454 102.068 C 473.456 93.589, 469.285 86.506, 462.529 80.116 L 457.017 74.903 450.759 71.979 L 444.500 69.055 437.500 68.047 C 433.650 67.493, 425.270 67.031, 418.879 67.020 L 407.258 67 406.621 62.250 C 405.887 56.763, 403.427 52.580, 399.359 49.898 L 396.500 48.013 391.398 48.007 L 386.296 48 382.898 50.270 M 345.500 99.412 C 338.538 102.506, 336 107.757, 336 119.065 L 336 127 391 127 L 446 127 446 117.648 L 446 108.296 443.750 104.999 C 442.512 103.187, 439.932 100.870, 438.016 99.852 L 434.531 98 391.516 98.039 L 348.500 98.078 345.500 99.412 M 82.898 108.270 C 81.029 109.518, 78.689 112.106, 77.698 114.020 L 75.895 117.500 76.374 121.413 C 76.899 125.702, 79.168 129.289, 83.308 132.381 L 85.992 134.385 90.822 134.385 L 95.651 134.385 98.841 132.113 C 102.943 129.192, 105 125.147, 105 120 L 105 115.901 103.451 112.906 C 102.600 111.259, 100.462 109.033, 98.701 107.960 L 95.500 106.007 90.898 106.004 L 86.296 106 82.898 108.270 M 201.941 108.703 C 195.977 113.722, 194.526 120.605, 198.094 126.954 C 200.464 131.171, 203.887 133.524, 209 134.452 L 212.500 135.087 216.926 132.794 L 221.352 130.500 223.238 127 L 225.123 123.500 224.723 118.902 L 224.323 114.304 222.411 111.736 C 221.360 110.324, 219.306 108.456, 217.846 107.584 L 215.191 106 210.172 106 L 205.153 106 201.941 108.703 M 336 183.288 L 336 208.576 338.250 213.038 L 340.500 217.500 344 219.248 L 347.500 220.997 391.500 220.995 L 435.500 220.993 438.759 219.005 C 440.552 217.912, 442.912 215.552, 444.005 213.759 L 445.993 210.500 445.996 184.250 L 446 158 391 158 L 336 158 336 183.288 M 0.486 366.500 C 0.486 440.200, 0.605 470.202, 0.750 433.172 C 0.895 396.142, 0.895 335.842, 0.750 299.172 C 0.605 262.502, 0.486 292.800, 0.486 366.500 M 31 266.500 L 31 281 256 281 L 481 281 481 266.500 L 481 252 256 252 L 31 252 31 266.500 M 31 397 L 31 482 83 482 L 135 482 135 397 L 135 312 83 312 L 31 312 31 397 M 166 397 L 166 482 218.500 482 L 271 482 271 397 L 271 312 218.500 312 L 166 312 166 397 M 301 397 L 301 482 391 482 L 481 482 481 397 L 481 312 391 312 L 301 312 301 397 M 339.500 342.403 C 335.594 344.127, 333.132 346.965, 331.449 351.684 L 330.088 355.500 330.068 396 L 330.048 436.500 330.972 440.500 L 331.896 444.500 335.814 448.161 L 339.732 451.823 345.116 452.478 C 348.077 452.838, 370.750 452.990, 395.500 452.816 L 440.500 452.500 443.895 450.500 C 445.763 449.400, 448.238 447.230, 449.395 445.678 L 451.500 442.856 451.780 398.306 L 452.060 353.756 450.030 349.562 L 448 345.368 444.114 343.184 L 440.228 341 391.364 341.039 L 342.500 341.078 339.500 342.403 M 86.968 371.910 C 82.713 373.255, 79.988 375.338, 77.693 379 L 75.500 382.500 75.500 396.500 L 75.500 410.500 77.500 413.895 C 78.600 415.763, 80.704 418.188, 82.176 419.285 L 84.851 421.279 89.676 421.681 L 94.500 422.084 98.396 419.792 L 102.292 417.500 104.146 414.016 L 106 410.531 106 396.413 L 106 382.296 103.750 378.990 C 99.557 372.828, 92.920 370.028, 86.968 371.910 M 205.684 372.437 C 200.575 374.275, 198.388 376.418, 196.454 381.482 L 194.835 385.719 195.168 398.790 L 195.500 411.861 197.562 414.619 C 198.696 416.136, 200.782 418.241, 202.198 419.298 L 204.772 421.220 209.288 421.729 L 213.804 422.238 217.902 419.935 L 222 417.632 224.076 413.343 L 226.152 409.054 225.826 395.096 L 225.500 381.139 223.395 378.319 C 220.929 375.015, 216.714 372.427, 212.500 371.631 L 209.500 371.065 205.684 372.437 M 361 397 L 361 422 391 422 L 421 422 421 397 L 421 372 391 372 L 361 372 361 397" stroke="none" fill="#000000" fill-rule="evenodd"/><path d="" stroke="none" fill="#080404" fill-rule="evenodd"/><path d="" stroke="none" fill="#040404" fill-rule="evenodd"/></svg>