<svg xmlns="http://www.w3.org/2000/svg" width="512" height="512" viewBox="0 0 512 512" version="1.1"><path d="" stroke="none" fill="#080404" fill-rule="evenodd"/><path d="M 250.381 21.910 C 246.141 24.495, 245 28.469, 245 40.649 C 245 48.377, 244.677 51, 243.724 51 C 243.022 51, 238.634 51.461, 233.974 52.024 C 205.902 55.418, 182.887 63.581, 161.574 77.703 C 148.467 86.389, 129.803 104.883, 120.406 118.498 C 107.364 137.394, 93.743 168.404, 92.286 182.519 C 91.799 187.237, 92.019 187.990, 94.794 191.095 L 97.835 194.500 171.418 194.769 L 245 195.038 245 255.991 L 245 316.944 197.080 317.222 L 149.160 317.500 146.595 319.910 C 143.431 322.883, 142.348 328.011, 144.026 332.064 C 146.493 338.019, 146.323 338, 197.950 338 L 245 338 245 410.032 C 245 470.024, 245.238 482.633, 246.421 485.466 C 247.891 488.983, 252.313 492, 256 492 C 259.687 492, 264.109 488.983, 265.579 485.466 C 266.762 482.633, 267 470.024, 267 410.032 L 267 338 313.953 338 C 346.420 338, 361.663 337.655, 363.359 336.882 C 369.413 334.124, 370.544 324.739, 365.405 319.910 L 362.840 317.500 314.920 317.222 L 267 316.944 267 255.991 L 267 195.038 340.582 194.769 L 414.165 194.500 417.206 191.095 C 419.987 187.983, 420.202 187.243, 419.710 182.479 C 418.926 174.884, 412.762 157.276, 406.047 143.448 C 396.857 124.527, 387.574 111.433, 373.070 96.934 C 351.423 75.293, 329.259 62.813, 300.136 55.866 C 292.599 54.068, 273.176 51.069, 268.750 51.020 C 267.195 51.002, 267 49.824, 267 40.468 C 267 28.285, 265.637 23.898, 261.128 21.566 C 257.133 19.500, 254.177 19.595, 250.381 21.910 M 229.500 73.583 C 187.540 80.062, 152.013 104.161, 129.999 141.079 C 125.744 148.215, 118.979 163.631, 116.541 171.750 L 115.865 174 255.933 174 C 332.970 174, 396 173.755, 396 173.456 C 396 173.157, 394.381 168.545, 392.402 163.206 C 374.531 114.994, 332.707 81.126, 281.683 73.550 C 268.789 71.636, 242.005 71.653, 229.500 73.583 M 56.110 267.396 C 53.221 268.997, 51.084 272.613, 51.035 275.981 C 51.016 277.346, 57.804 303.428, 66.120 333.941 L 81.241 389.420 71.024 435.379 C 59.764 486.029, 59.804 485.594, 66.032 489.813 C 73.116 494.613, 80.785 490.089, 82.949 479.833 C 83.568 476.900, 87.782 457.850, 92.313 437.500 L 100.552 400.500 143.205 400.239 C 183.186 399.995, 185.892 400.089, 186.395 401.739 C 186.690 402.708, 191.008 421.889, 195.991 444.364 C 200.975 466.840, 205.504 486.072, 206.056 487.104 C 207.261 489.357, 212.090 492, 215 492 C 218.721 492, 223.109 488.984, 224.608 485.395 C 225.992 482.084, 225.566 479.683, 215.440 433.711 C 208.979 404.376, 204.134 384.521, 203.067 383 C 199.772 378.304, 197.652 378.117, 147.250 378.056 C 121.263 378.025, 100 377.887, 100 377.748 C 100 377.610, 93.497 353.647, 85.548 324.498 C 72.034 274.938, 70.898 271.322, 68.033 268.750 C 64.633 265.699, 60.100 265.184, 56.110 267.396 M 443.967 268.750 C 441.102 271.322, 439.966 274.938, 426.452 324.498 C 418.503 353.647, 412 377.610, 412 377.748 C 412 377.887, 390.738 378.025, 364.750 378.056 C 314.348 378.117, 312.228 378.304, 308.933 383 C 307.866 384.521, 303.021 404.376, 296.560 433.711 C 286.434 479.683, 286.008 482.084, 287.392 485.395 C 288.891 488.984, 293.279 492, 297 492 C 299.910 492, 304.739 489.357, 305.944 487.104 C 306.496 486.072, 311.025 466.840, 316.009 444.364 C 320.992 421.889, 325.310 402.708, 325.605 401.739 C 326.108 400.089, 328.814 399.995, 368.795 400.239 L 411.448 400.500 419.687 437.500 C 424.218 457.850, 428.432 476.900, 429.051 479.833 C 429.741 483.102, 431.272 486.392, 433.006 488.333 C 435.390 491.001, 436.545 491.500, 440.337 491.500 C 445.545 491.500, 449.499 488.556, 450.517 483.921 C 450.925 482.067, 447.629 465.307, 440.949 435.257 L 430.759 389.420 445.880 333.941 C 454.196 303.428, 461 277.479, 461 276.278 C 461 267.437, 450.568 262.826, 443.967 268.750" stroke="none" fill="#040404" fill-rule="evenodd"/></svg>