<?xml version="1.0" standalone="no"?>
<!DOCTYPE svg PUBLIC "-//W3C//DTD SVG 20010904//EN"
 "http://www.w3.org/TR/2001/REC-SVG-20010904/DTD/svg10.dtd">
<svg version="1.0" xmlns="http://www.w3.org/2000/svg"
 width="512.000000pt" height="512.000000pt" viewBox="0 0 512.000000 512.000000"
 preserveAspectRatio="xMidYMid meet">

<g transform="translate(0.000000,512.000000) scale(0.100000,-0.100000)"
fill="#000000" stroke="none">
<path d="M2385 5055 l-25 -24 0 -511 0 -511 25 -24 24 -25 571 0 571 0 24 25
25 24 0 511 0 511 -25 24 -24 25 -571 0 -571 0 -24 -25z m1135 -535 l0 -480
-540 0 -540 0 0 480 0 480 540 0 540 0 0 -480z"/>
<path d="M2532 4908 c-17 -17 -17 -759 0 -776 17 -17 879 -17 896 0 17 17 17
759 0 776 -17 17 -879 17 -896 0z m828 -204 l0 -135 -26 20 c-68 53 -189 64
-260 22 l-33 -20 -57 34 c-103 62 -214 69 -321 20 -30 -14 -57 -25 -59 -25 -2
0 -4 50 -4 110 l0 110 380 0 380 0 0 -136z m-442 -133 c79 -40 104 -69 286
-318 l38 -53 -321 0 -321 0 0 153 c0 169 -1 165 71 210 68 41 174 45 247 8z
m337 -30 c22 -10 55 -30 73 -45 l32 -28 0 -134 c0 -76 -4 -134 -9 -134 -10 0
-254 330 -249 336 10 10 57 23 83 23 17 0 48 -8 70 -18z"/>
<path d="M1185 4975 c-14 -13 -25 -31 -25 -40 0 -12 -16 -15 -95 -15 -88 0
-98 -2 -120 -25 l-25 -24 0 -416 0 -415 -60 0 -60 0 0 95 c0 88 -2 98 -25 120
-13 14 -31 25 -39 25 -12 0 -14 10 -9 53 7 60 33 161 59 229 17 44 17 49 2 64
-22 22 -83 11 -142 -26 l-45 -29 -25 77 c-30 90 -69 152 -95 152 -33 0 -65
-51 -101 -162 l-21 -67 -45 29 c-59 37 -120 48 -142 26 -15 -15 -15 -20 2 -64
23 -61 52 -174 60 -234 5 -39 3 -48 -10 -48 -8 0 -26 -11 -39 -25 -23 -22 -25
-32 -25 -120 l0 -95 -35 0 c-25 0 -44 -8 -60 -25 -22 -21 -25 -33 -25 -95 0
-62 3 -74 25 -95 l24 -25 951 0 951 0 24 25 c22 21 25 33 25 95 0 62 -3 74
-25 95 -13 14 -31 25 -40 25 -13 0 -15 49 -15 435 l0 436 -25 24 c-23 24 -31
25 -135 25 -104 0 -112 -1 -135 -25 -17 -16 -25 -35 -25 -60 l0 -35 -80 0 -80
0 0 55 c0 46 -4 60 -25 80 -23 24 -31 25 -135 25 -104 0 -112 -1 -135 -25z
m215 -135 l0 -80 -80 0 -80 0 0 80 0 80 80 0 80 0 0 -80z m480 -60 l0 -100
-80 0 -80 0 0 100 0 100 80 0 80 0 0 -100z m-720 -140 l0 -200 -80 0 -80 0 0
200 0 200 80 0 80 0 0 -200z m480 -60 l0 -180 -80 0 -80 0 0 180 0 180 80 0
80 0 0 -180z m-240 60 l0 -40 -80 0 -80 0 0 40 0 40 80 0 80 0 0 -40z m-897
-22 c31 -101 32 -126 7 -179 -13 -27 -26 -49 -30 -49 -4 0 -17 22 -30 49 -17
38 -21 58 -16 88 10 54 38 143 46 143 3 0 14 -24 23 -52z m1377 -298 l0 -280
-80 0 -80 0 0 280 0 280 80 0 80 0 0 -280z m-1533 138 c18 -25 44 -75 58 -112
l25 -66 -55 0 c-30 0 -55 4 -55 9 0 21 -31 189 -40 215 -10 28 -9 28 13 14 12
-9 37 -35 54 -60z m333 45 c-9 -26 -40 -194 -40 -214 0 -5 -25 -9 -55 -9 l-55
0 25 65 c27 72 74 146 107 170 29 19 29 20 18 -12z m720 -223 l0 -240 -80 0
-80 0 0 240 0 240 80 0 80 0 0 -240z m-240 40 l0 -40 -80 0 -80 0 0 40 0 40
80 0 80 0 0 -40z m480 -40 l0 -40 -80 0 -80 0 0 40 0 40 80 0 80 0 0 -40z
m-920 -160 l0 -80 -240 0 -240 0 0 80 0 80 240 0 240 0 0 -80z m440 0 l0 -80
-80 0 -80 0 0 80 0 80 80 0 80 0 0 -80z m480 -20 l0 -60 -80 0 -80 0 0 60 0
60 80 0 80 0 0 -60z m320 -180 l0 -40 -920 0 -920 0 0 40 0 40 920 0 920 0 0
-40z"/>
<path d="M3905 4615 l-25 -24 0 -491 0 -491 25 -24 24 -25 551 0 551 0 24 25
25 24 0 491 0 491 -25 24 -24 25 -551 0 -551 0 -24 -25z m1095 -515 l0 -460
-520 0 -520 0 0 460 0 460 520 0 520 0 0 -460z"/>
<path d="M4052 4468 c-17 -17 -17 -719 0 -736 17 -17 839 -17 856 0 17 17 17
719 0 736 -17 17 -839 17 -856 0z m788 -240 l0 -172 -53 52 c-29 29 -59 52
-66 52 -7 0 -44 -22 -81 -50 -37 -27 -71 -50 -76 -50 -5 0 -59 50 -119 110
-60 61 -117 110 -126 110 -10 0 -58 -48 -108 -106 l-91 -105 0 165 0 166 360
0 360 0 0 -172z m-281 -268 c7 0 44 23 81 50 37 28 72 50 77 50 5 0 34 -26 66
-58 l57 -58 0 -72 0 -72 -360 0 -360 0 0 73 0 72 102 118 101 119 111 -111
c61 -61 117 -111 125 -111z"/>
<path d="M1150 3424 c-176 -38 -336 -165 -414 -329 -48 -99 -54 -135 -77 -470
-11 -165 -22 -301 -24 -303 -2 -2 -23 8 -47 21 -112 66 -251 74 -348 21 -95
-52 -156 -145 -186 -286 -43 -200 34 -599 183 -947 119 -279 187 -365 313
-397 45 -11 45 -11 52 -64 8 -65 31 -98 89 -128 24 -13 43 -28 41 -35 -2 -7
-32 -77 -68 -156 -35 -79 -64 -156 -64 -172 0 -39 22 -89 50 -114 32 -29 128
-28 167 1 16 12 78 110 151 237 l123 217 1457 0 1458 0 108 -207 c60 -115 118
-218 129 -230 42 -47 145 -55 189 -16 26 23 48 74 48 111 0 15 -27 95 -60 177
-33 82 -60 152 -60 157 0 4 7 8 16 8 30 0 85 33 111 66 16 21 28 53 32 85 6
52 6 52 51 63 119 30 187 112 291 346 129 294 219 648 219 861 -1 197 -75 355
-200 423 -97 53 -236 45 -348 -21 -24 -13 -45 -23 -47 -21 -2 2 -13 138 -24
303 -23 335 -29 371 -77 470 -80 168 -237 291 -420 330 -101 21 -2715 21
-2814 -1z m2808 -79 c189 -45 353 -206 392 -385 6 -30 22 -203 34 -385 l23
-329 -42 -52 c-44 -54 -91 -144 -119 -229 l-16 -50 -347 3 -346 3 205 207
c218 219 231 238 213 309 -4 18 -91 113 -248 270 -257 257 -271 266 -344 248
-38 -9 -509 -480 -518 -518 -18 -72 -6 -90 213 -309 l206 -208 -324 0 c-263 0
-330 -3 -352 -14 -24 -13 -32 -13 -55 0 -23 11 -90 14 -352 14 l-325 0 206
208 c218 219 231 238 213 309 -4 18 -91 113 -243 266 -258 259 -275 271 -349
249 -30 -9 -91 -65 -275 -249 -152 -153 -239 -248 -243 -266 -18 -72 -6 -90
213 -309 l206 -207 -347 -3 -347 -3 -16 50 c-23 71 -89 196 -128 241 l-33 39
24 340 c17 255 28 356 43 405 50 169 203 312 378 354 88 22 2709 22 2800 1z
m-1986 -693 c145 -145 228 -235 228 -247 0 -11 -9 -31 -20 -45 l-19 -25 -253
253 -253 253 25 19 c14 11 34 20 45 20 12 0 102 -83 247 -228z m1680 0 c145
-145 228 -235 228 -247 0 -11 -9 -31 -20 -45 l-19 -25 -253 253 -253 253 25
19 c14 11 34 20 45 20 12 0 102 -83 247 -228z m-1797 -122 l250 -250 -133
-132 -132 -133 -252 252 -253 253 130 130 c71 71 132 130 135 130 3 0 118
-113 255 -250z m1680 0 l250 -250 -133 -132 -132 -133 -252 252 -253 253 130
130 c71 71 132 130 135 130 3 0 118 -113 255 -250z m-2000 -320 c202 -202 247
-252 235 -261 -45 -30 -51 -30 -83 -10 -54 34 -447 435 -447 457 0 20 26 64
38 64 4 0 120 -113 257 -250z m1680 0 c202 -202 247 -252 235 -261 -45 -30
-51 -30 -83 -10 -54 34 -447 435 -447 457 0 20 26 64 38 64 4 0 120 -113 257
-250z m-2692 76 c111 -54 200 -158 257 -300 36 -91 37 -103 9 -111 -30 -10
-107 -82 -135 -126 -34 -54 -57 -144 -52 -201 5 -52 27 -89 72 -122 27 -21 36
-21 928 -24 770 -2 905 0 929 12 25 13 33 13 57 0 23 -12 166 -14 915 -14 982
0 930 -3 983 66 26 33 29 45 29 108 -1 56 -7 84 -29 133 -29 65 -112 154 -154
167 -29 10 -28 23 8 113 77 193 216 316 371 330 187 17 304 -161 285 -436 -13
-200 -77 -447 -183 -706 -88 -216 -148 -310 -226 -352 -30 -17 -145 -18 -2027
-18 l-1995 0 -45 27 c-25 14 -59 46 -76 70 -102 141 -234 492 -296 781 -28
135 -31 346 -6 428 27 85 75 149 139 182 48 26 62 28 121 24 45 -3 85 -13 121
-31z m1985 -458 c17 -17 17 -319 0 -336 -9 -9 -222 -12 -895 -12 l-884 0 -24
25 c-50 50 -22 169 59 251 88 87 38 83 941 83 603 1 794 -2 803 -11z m1741 -5
c100 -32 177 -129 188 -239 5 -47 3 -55 -20 -78 l-26 -26 -884 0 c-673 0 -886
3 -895 12 -17 17 -17 319 0 336 9 9 200 12 799 12 704 0 792 -2 838 -17z m191
-1138 c0 -25 -8 -44 -25 -60 l-24 -25 -1831 0 -1831 0 -24 25 c-17 16 -25 35
-25 60 l0 35 1880 0 1880 0 0 -35z m-3452 -187 c-8 -13 -59 -101 -113 -196
-99 -175 -112 -190 -162 -180 -9 2 -22 15 -27 30 -10 29 0 57 101 276 l42 92
87 0 86 0 -14 -22z m3348 -148 c57 -144 66 -175 58 -198 -11 -31 -57 -42 -85
-20 -13 10 -209 371 -209 384 0 2 38 4 84 4 l84 0 68 -170z"/>
</g>
</svg>
