<?xml version="1.0" standalone="no"?>
<!DOCTYPE svg PUBLIC "-//W3C//DTD SVG 20010904//EN"
 "http://www.w3.org/TR/2001/REC-SVG-20010904/DTD/svg10.dtd">
<svg version="1.0" xmlns="http://www.w3.org/2000/svg"
 width="512.000000pt" height="512.000000pt" viewBox="0 0 512.000000 512.000000"
 preserveAspectRatio="xMidYMid meet">

<g transform="translate(0.000000,512.000000) scale(0.100000,-0.100000)"
fill="#000000" stroke="none">
<path d="M2425 4935 l-25 -24 0 -671 0 -671 25 -24 24 -25 911 0 911 0 24 25
25 24 0 671 0 671 -25 24 -24 25 -911 0 -911 0 -24 -25z m1735 -454 l0 -320
-47 -6 c-182 -23 -352 -87 -519 -194 -19 -13 -27 -9 -100 53 -245 210 -554
344 -876 381 l-58 6 0 200 0 199 800 0 800 0 0 -319z m-1459 -267 c219 -41
444 -140 620 -271 70 -53 245 -217 260 -245 9 -17 -16 -18 -506 -18 l-515 0 0
275 0 275 29 0 c16 0 66 -7 112 -16z m1459 -379 l0 -155 -178 0 -178 0 -57 72
-57 72 28 18 c107 74 302 143 410 147 l32 1 0 -155z"/>
<path d="M3464 4678 c-143 -97 -137 -311 10 -402 38 -24 63 -31 115 -34 57 -3
73 0 121 25 60 31 120 106 120 149 0 39 -42 78 -84 78 -31 0 -43 -7 -80 -47
-50 -55 -75 -59 -117 -18 -41 42 -37 67 18 117 40 37 47 49 47 80 0 28 -7 42
-28 60 -37 32 -65 30 -122 -8z"/>
<path d="M592 3503 c-23 -19 -272 -672 -272 -712 0 -12 11 -33 25 -46 24 -25
24 -25 240 -25 l215 0 0 -240 0 -240 -216 0 c-141 0 -231 -4 -258 -12 -55 -16
-138 -99 -154 -154 -17 -59 -17 -1689 0 -1748 16 -55 99 -138 154 -154 59 -17
1049 -17 1108 0 55 16 138 99 154 154 17 59 17 1689 0 1746 -6 22 -31 62 -55
88 -66 74 -94 80 -355 80 l-218 0 0 240 0 240 80 0 80 0 0 -135 c0 -131 1
-137 25 -160 15 -16 36 -25 55 -25 19 0 40 9 55 25 24 23 25 29 25 160 l0 135
55 0 c46 0 60 4 80 25 14 13 25 34 25 46 0 40 -249 693 -272 712 -18 15 -47
17 -288 17 -241 0 -270 -2 -288 -17z m555 -368 c46 -121 85 -228 89 -237 5
-17 -16 -18 -355 -18 -199 0 -361 2 -361 3 0 6 171 461 177 470 2 4 86 6 186
5 l181 -3 83 -220z"/>
<path d="M2175 3186 c-37 -16 -70 -52 -84 -89 -7 -19 -11 -208 -11 -561 l0
-532 -46 -49 c-70 -72 -105 -157 -112 -265 l-5 -88 -33 -7 c-42 -7 -93 -50
-110 -92 -11 -26 -14 -153 -14 -663 l0 -631 25 -24 c24 -25 26 -25 215 -25
189 0 191 0 215 25 24 23 25 29 25 160 l0 135 1120 0 1120 0 0 -135 c0 -131 1
-137 25 -160 24 -25 26 -25 215 -25 190 0 191 0 216 25 l24 25 -2 644 -3 644
-31 39 c-21 26 -45 43 -77 53 l-47 15 0 60 c0 113 -40 213 -115 292 l-45 46
-2 547 -3 547 -29 37 c-44 58 -79 68 -222 64 -105 -3 -127 -6 -150 -24 -42
-31 -65 -67 -71 -111 l-5 -41 -64 28 c-86 39 -263 95 -359 114 -377 74 -784
32 -1109 -114 l-64 -28 -5 39 c-7 50 -49 107 -93 125 -44 19 -247 18 -289 0z
m225 -626 l0 -480 -80 0 -80 0 0 480 0 480 80 0 80 0 0 -480z m2080 0 l0 -480
-80 0 -80 0 0 480 0 480 80 0 80 0 0 -480z m-745 -185 c24 -23 25 -29 25 -160
l0 -135 -400 0 -400 0 0 135 c0 131 1 137 25 160 l24 25 351 0 351 0 24 -25z
m765 -479 c89 -47 131 -115 138 -223 5 -72 4 -73 -20 -73 -33 0 -87 -37 -115
-79 -20 -30 -23 -46 -23 -137 l0 -104 -1120 0 -1120 0 0 104 c0 91 -3 107 -23
137 -28 42 -82 79 -115 79 -24 0 -25 1 -20 73 8 124 68 204 178 238 14 4 515
7 1115 6 1042 -2 1092 -3 1125 -21z m-2420 -1016 l0 -560 -80 0 -80 0 0 560 0
560 80 0 80 0 0 -560z m2720 0 l0 -560 -80 0 -80 0 0 560 0 560 80 0 80 0 0
-560z"/>
</g>
</svg>
