<?xml version="1.0" encoding="UTF-8" standalone="no"?>
<svg
   xmlns:dc="http://purl.org/dc/elements/1.1/"
   xmlns:cc="http://creativecommons.org/ns#"
   xmlns:rdf="http://www.w3.org/1999/02/22-rdf-syntax-ns#"
   xmlns:svg="http://www.w3.org/2000/svg"
   xmlns="http://www.w3.org/2000/svg"
   version="1.1"
   id="svg2"
   xml:space="preserve"
   width="426.88626"
   height="526.72461"
   viewBox="0 0 426.88626 526.72461"><metadata
     id="metadata8"><rdf:RDF><cc:Work
         rdf:about=""><dc:format>image/svg+xml</dc:format><dc:type
           rdf:resource="http://purl.org/dc/dcmitype/StillImage" /><dc:title></dc:title></cc:Work></rdf:RDF></metadata><defs
     id="defs6"><clipPath
       clipPathUnits="userSpaceOnUse"
       id="clipPath18"><path
         d="M 0,0.047 H 500 V 500.001 H 0 Z"
         id="path16" /></clipPath><radialGradient
       fx="0"
       fy="0"
       cx="0"
       cy="0"
       r="1"
       gradientUnits="userSpaceOnUse"
       gradientTransform="matrix(250,0,0,-250,249.99951,250.04687)"
       spreadMethod="pad"
       id="radialGradient30"><stop
         style="stop-opacity:1;stop-color:#ffffff"
         offset="0"
         id="stop24" /><stop
         style="stop-opacity:1;stop-color:#ffffff"
         offset="0.79908705"
         id="stop26" /><stop
         style="stop-opacity:1;stop-color:#f5f5f5"
         offset="1"
         id="stop28" /></radialGradient><clipPath
       clipPathUnits="userSpaceOnUse"
       id="clipPath40"><path
         d="M 0,500 H 500 V 0 H 0 Z"
         id="path38" /></clipPath><clipPath
       clipPathUnits="userSpaceOnUse"
       id="clipPath100"><path
         d="M 149.485,348.047 H 385.758 V 213.636 H 149.485 Z"
         id="path98" /></clipPath><clipPath
       clipPathUnits="userSpaceOnUse"
       id="clipPath124"><path
         d="m 211.978,491.342 h 77.163 v -33.895 h -77.163 z"
         id="path122" /></clipPath></defs><g
     id="g10"
     transform="matrix(1.3333333,0,0,-1.3333333,-146.7804,591.5189)"><g
       id="g42"
       transform="translate(381.333,327.3457)"><path
         d="M 0,0 C 22.201,7.06 33.5,34.077 33.334,54.81 33.18,74.108 24.096,92.74 44.167,103.333"
         style="fill:none;stroke:#e6332a;stroke-width:2;stroke-linecap:round;stroke-linejoin:miter;stroke-miterlimit:10;stroke-dasharray:none;stroke-opacity:1"
         id="path44" /></g><g
       id="g46"
       transform="translate(354.1602,298.7378)"><path
         d="m 0,0 c -4.894,-4.894 -12.829,-4.895 -17.723,-0.001 -4.893,4.894 -4.892,12.828 10e-4,17.722 4.893,4.893 12.827,4.893 17.72,-0.001 C 4.893,12.827 4.893,4.893 0,0 m 8.484,44.907 -83.469,4.356 c -8.796,0.535 -19.703,-3.599 -25.935,-9.83 L -234.209,-93.859 c -8.018,-8.016 -8.018,-21.062 0,-29.079 l 93.547,-93.549 c 8.018,-8.017 21.064,-8.017 29.081,0 l 133.292,133.29 c 6.054,6.056 10.435,17.077 10.188,25.727 L 28.825,23.985 C 28.509,35.044 19.611,44.233 8.484,44.907"
         style="fill:#000000;fill-opacity:1;fill-rule:nonzero;stroke:none"
         id="path48" /></g><g
       id="g50"
       transform="translate(362.6445,343.645)"><path
         d="m 0,0 -41.563,1.905 -41.554,2.073 c -3.429,0.228 -6.863,-0.216 -10.184,-1.091 -3.316,-0.88 -6.526,-2.188 -9.496,-3.902 -1.483,-0.858 -2.909,-1.818 -4.235,-2.895 -1.339,-1.058 -2.509,-2.311 -3.745,-3.541 l -7.339,-7.37 -29.355,-29.484 -58.966,-58.712 -29.486,-29.353 c -2.455,-2.441 -4.963,-4.859 -7.374,-7.32 -2.32,-2.534 -3.974,-5.674 -4.759,-9.029 -0.794,-3.353 -0.723,-6.911 0.206,-10.24 0.921,-3.333 2.715,-6.422 5.156,-8.886 -2.473,2.431 -4.314,5.507 -5.283,8.849 -0.979,3.338 -1.098,6.929 -0.337,10.335 0.751,3.41 2.39,6.623 4.722,9.237 2.408,2.521 4.864,4.949 7.294,7.429 l 29.352,29.487 58.712,58.966 29.483,29.356 7.371,7.339 c 1.226,1.209 2.436,2.493 3.825,3.583 1.369,1.103 2.835,2.079 4.356,2.95 3.044,1.738 6.318,3.055 9.705,3.939 3.383,0.877 6.917,1.318 10.415,1.069 l 41.544,-2.263 z"
         style="fill:#575756;fill-opacity:1;fill-rule:nonzero;stroke:none"
         id="path52" /></g><g
       id="g54"
       transform="translate(376.3271,240.9004)"><path
         d="m 0,0 -3.077,81.543 c -0.17,5.951 -5.171,11.115 -11.112,11.475 l -83.553,4.36 c -5.943,0.362 -14.247,-2.787 -18.456,-6.996 l -133.291,-133.29 c -4.209,-4.209 -4.209,-11.096 0,-15.306 l 93.548,-93.548 c 4.209,-4.209 11.097,-4.209 15.306,0 L -7.346,-18.472 C -3.137,-14.262 0.169,-5.95 0,0 Z"
         style="fill:none;stroke:#ff4732;stroke-width:2;stroke-linecap:round;stroke-linejoin:miter;stroke-miterlimit:10;stroke-dasharray:3.992, 3.992;stroke-dashoffset:0;stroke-opacity:1"
         id="path56" /></g><g
       id="g58"
       transform="translate(205.4854,217.9336)"><path
         d="m 0,0 -10.227,-10.229 -3.139,3.14 c -1.465,1.465 -2.528,2.267 -3.191,2.405 -0.663,0.141 -1.299,-0.094 -1.91,-0.705 -0.662,-0.664 -0.893,-1.435 -0.692,-2.315 0.201,-0.882 0.851,-1.872 1.95,-2.971 1.413,-1.413 2.669,-2.288 3.767,-2.62 1.08,-0.35 2.981,-0.176 5.7,0.524 7.812,1.992 13.287,2.691 16.426,2.098 3.139,-0.593 6.784,-2.965 10.934,-7.114 3.017,-3.018 4.887,-5.594 5.611,-7.731 0.723,-2.135 0.558,-4.698 -0.498,-7.688 -1.055,-2.991 -2.925,-5.83 -5.61,-8.515 -2.947,-2.947 -6.021,-4.905 -9.22,-5.873 -3.2,-0.968 -5.986,-0.911 -8.357,0.17 -2.373,1.081 -5.145,3.209 -8.318,6.383 l -2.773,2.772 10.227,10.228 5.153,-5.152 c 1.586,-1.588 2.751,-2.464 3.492,-2.63 0.741,-0.166 1.478,0.118 2.211,0.85 0.732,0.733 0.989,1.565 0.771,2.498 -0.218,0.934 -0.893,1.966 -2.027,3.1 -2.494,2.494 -4.464,3.784 -5.912,3.871 -1.465,0.07 -4.464,-0.366 -8.997,-1.308 -4.552,-0.923 -7.682,-1.421 -9.391,-1.49 -1.709,-0.07 -3.579,0.326 -5.611,1.19 -2.032,0.862 -4.172,2.42 -6.421,4.669 -3.244,3.243 -5.201,6.029 -5.873,8.357 -0.671,2.328 -0.506,4.839 0.497,7.533 1.003,2.694 2.812,5.35 5.428,7.965 2.86,2.859 5.759,4.835 8.698,5.925 2.938,1.089 5.436,1.26 7.493,0.51 2.059,-0.75 4.77,-2.808 8.135,-6.173 z"
         style="fill:#ffffff;fill-opacity:1;fill-rule:nonzero;stroke:none"
         id="path60" /></g><g
       id="g62"
       transform="translate(237.4658,221.0879)"><path
         d="m 0,0 c -5.354,4.239 -11.841,9.609 -19.464,16.109 6.987,-9.23 12.212,-15.864 15.673,-19.9 z m -21.393,33.066 48.645,-36.05 -11.254,-11.254 -8.202,7.019 -3.94,-3.938 6.95,-8.274 -11.385,-11.385 -36.731,47.965 z"
         style="fill:#ffffff;fill-opacity:1;fill-rule:nonzero;stroke:none"
         id="path64" /></g><g
       id="g66"
       transform="translate(235.252,273.3335)"><path
         d="m 0,0 33.873,-33.873 6.697,6.696 8.474,-8.475 -17.707,-17.709 -42.349,42.349 z"
         style="fill:#ffffff;fill-opacity:1;fill-rule:nonzero;stroke:none"
         id="path68" /></g><g
       id="g70"
       transform="translate(244.6162,282.6978)"><path
         d="m 0,0 18.362,18.362 8.476,-8.475 -7.351,-7.349 8.031,-8.031 6.879,6.88 8.056,-8.057 -6.879,-6.879 9.313,-9.312 8.082,8.082 8.475,-8.474 -19.095,-19.095 z"
         style="fill:#ffffff;fill-opacity:1;fill-rule:nonzero;stroke:none"
         id="path72" /></g><g
       id="g74"
       transform="translate(230.1772,178.1719)"><path
         d="m 0,0 6.2,-6.2 -4.784,-4.783 24.778,-24.778 -8.055,-8.054 -24.778,24.777 -4.764,-4.765 -6.2,6.199 z"
         style="fill:#ffffff;fill-opacity:1;fill-rule:nonzero;stroke:none"
         id="path76" /></g><g
       id="g78"
       transform="translate(250.3242,182.3994)"><path
         d="M 0,0 C -1.44,1.441 -2.442,2.282 -3.003,2.525 -3.565,2.768 -4.095,2.64 -4.592,2.144 -5.013,1.723 -5.172,1.237 -5.07,0.688 c 0.101,-0.547 0.951,-1.62 2.545,-3.213 L 11.939,-16.99 c 1.798,-1.799 2.982,-2.836 3.55,-3.11 0.567,-0.274 1.119,-0.143 1.655,0.393 0.547,0.547 0.658,1.142 0.326,1.778 -0.332,0.639 -1.41,1.869 -3.235,3.694 z m 18.234,-2.125 c 3.113,-3.111 5.242,-5.389 6.391,-6.829 1.147,-1.442 1.871,-3.084 2.172,-4.928 0.299,-1.843 0.079,-3.709 -0.661,-5.596 -0.74,-1.887 -1.984,-3.705 -3.731,-5.453 -1.658,-1.658 -3.418,-2.877 -5.28,-3.653 -1.862,-0.779 -3.737,-1.027 -5.626,-0.747 -1.887,0.279 -3.546,0.981 -4.975,2.103 -1.426,1.124 -3.737,3.28 -6.924,6.468 l -5.301,5.3 c -3.112,3.112 -5.243,5.39 -6.391,6.831 -1.148,1.441 -1.872,3.083 -2.172,4.927 -0.299,1.843 -0.079,3.708 0.661,5.596 0.739,1.887 1.983,3.706 3.731,5.453 1.658,1.658 3.418,2.876 5.28,3.654 1.863,0.778 3.738,1.027 5.625,0.746 1.889,-0.281 3.546,-0.982 4.976,-2.104 1.429,-1.122 3.737,-3.28 6.926,-6.467 z"
         style="fill:#ffffff;fill-opacity:1;fill-rule:nonzero;stroke:none"
         id="path80" /></g><g
       id="g82"
       transform="translate(266.7793,204.1719)"><path
         d="m 0,0 20.376,-20.376 c 1.161,1.161 1.644,2.108 1.444,2.842 -0.196,0.733 -1.329,2.133 -3.395,4.198 L 6.39,-1.301 C 4.986,0.104 4.044,0.957 3.559,1.264 3.073,1.568 2.58,1.654 2.075,1.521 1.572,1.387 0.88,0.881 0,0 m -13.355,-2.755 6.026,6.027 c 3.891,3.891 6.701,6.343 8.429,7.357 1.728,1.014 3.358,1.471 4.888,1.369 1.531,-0.103 2.886,-0.566 4.065,-1.388 1.181,-0.823 3.238,-2.701 6.173,-5.634 l 10.847,-10.85 c 2.781,-2.779 4.509,-4.77 5.185,-5.968 0.676,-1.2 0.954,-2.389 0.833,-3.569 -0.122,-1.18 -0.556,-2.353 -1.302,-3.521 -0.746,-1.167 -2.082,-2.714 -4.008,-4.639 L 17.621,-33.73 Z"
         style="fill:#ffffff;fill-opacity:1;fill-rule:nonzero;stroke:none"
         id="path84" /></g><g
       id="g86"
       transform="translate(304.6553,212.8135)"><path
         d="M 0,0 C -3.916,3.101 -8.661,7.028 -14.237,11.784 -9.126,5.032 -5.305,0.179 -2.772,-2.772 Z M -15.648,24.187 19.935,-2.184 11.703,-10.416 5.702,-5.28 2.821,-8.161 7.904,-14.213 -0.424,-22.542 -27.29,12.544 Z"
         style="fill:#ffffff;fill-opacity:1;fill-rule:nonzero;stroke:none"
         id="path88" /></g><g
       id="g90"
       transform="translate(309.791,257.7837)"><path
         d="M 0,0 13.89,-25.639 25.102,-36.85 17.64,-44.312 6.428,-33.1 l -25.427,14.101 7.398,7.4 c 7.205,-4.891 11.924,-8.308 14.165,-10.251 -2.86,3.751 -6.181,8.568 -9.964,14.45 z"
         style="fill:#ffffff;fill-opacity:1;fill-rule:nonzero;stroke:none"
         id="path92" /></g><g
       id="g94"><g
         id="g96" /><g
         id="g108"><g
           clip-path="url(#clipPath100)"
           opacity="0.110001"
           id="g106"><g
             transform="translate(354.1602,298.7378)"
             id="g104"><path
               d="m 0,0 c -4.894,-4.894 -12.829,-4.895 -17.723,-0.001 -4.893,4.894 -4.892,12.828 10e-4,17.722 4.893,4.893 12.827,4.893 17.72,-0.001 C 4.893,12.827 4.893,4.893 0,0 m -74.985,49.263 c -8.796,0.535 -19.703,-3.599 -25.935,-9.83 L -204.675,-64.324 c 29.432,-13.074 65.533,-20.778 104.549,-20.778 52.079,0 98.965,13.724 131.724,35.631 L 28.825,23.985 C 28.509,35.044 19.611,44.233 8.484,44.907 Z"
               style="fill:#ffffff;fill-opacity:1;fill-rule:nonzero;stroke:none"
               id="path102" /></g></g></g></g><g
       id="g110"
       transform="translate(421.5322,439.2832)"><path
         d="M 0,0 C -0.219,0.508 -0.802,0.744 -1.314,0.523 -1.822,0.305 -2.056,-0.284 -1.837,-0.791 7.99,-23.618 -24.26,-42.159 -47.81,-55.697 c -6.138,-3.53 -11.44,-6.577 -15.254,-9.287 l -0.605,-0.428 c -7.531,-5.338 -20.136,-14.274 -23.527,-30.754 -1.709,-8.311 0.655,-17.23 5.883,-22.191 3.182,-3.021 7.128,-4.185 11.169,-3.309 0.178,0.038 0.357,0.081 0.535,0.127 0.163,0.043 0.296,0.132 0.412,0.238 -1.061,0.73 -2.065,1.163 -2.699,1.388 -3.628,-0.327 -6.328,1.381 -8.041,3.006 -4.671,4.434 -6.851,12.798 -5.299,20.338 3.231,15.708 15.433,24.358 22.724,29.526 l 0.606,0.429 c 3.735,2.654 9,5.68 15.093,9.183 C -22.611,-43.518 10.532,-24.464 0,0"
         style="fill:#e6332a;fill-opacity:1;fill-rule:nonzero;stroke:none"
         id="path112" /></g><g
       id="g114"
       transform="translate(299.8975,59.8457)"><path
         d="m 0,0 c 0,-4.143 -32.511,-7.5 -72.615,-7.5 -40.105,0 -72.616,3.357 -72.616,7.5 0,4.143 32.511,7.5 72.616,7.5 C -32.511,7.5 0,4.143 0,0"
         style="fill:#ededed;fill-opacity:1;fill-rule:nonzero;stroke:none"
         id="path116" /></g></g></svg>
