<?xml version="1.0" encoding="UTF-8" standalone="no"?>
<svg
   xmlns:dc="http://purl.org/dc/elements/1.1/"
   xmlns:cc="http://creativecommons.org/ns#"
   xmlns:rdf="http://www.w3.org/1999/02/22-rdf-syntax-ns#"
   xmlns:svg="http://www.w3.org/2000/svg"
   xmlns="http://www.w3.org/2000/svg"
   id="svg4629"
   version="1.1"
   viewBox="0 0 512 512"
   height="512mm"
   width="512mm">
  <defs
     id="defs4623">
    <clipPath
       id="clipPath814"
       clipPathUnits="userSpaceOnUse">
      <path
         id="path812"
         d="m 1551.43,4374.04 v 0 40.33 -0.18 c 0,0 0,0.94 0,7.11 v 0 -0.45 -6.93 -13.3 -13.3 c 0,0 0,-4.43 0,-13.28" />
    </clipPath>
    <clipPath
       id="clipPath1018"
       clipPathUnits="userSpaceOnUse">
      <path
         id="path1016"
         d="m 3932.54,5304.94 h -138.86 l -86.45,38.76 225.31,215.55 29.43,-62.68 v -162.2 c 0,-16.26 -13.18,-29.43 -29.43,-29.43" />
    </clipPath>
    <linearGradient
       id="linearGradient1024"
       spreadMethod="pad"
       gradientTransform="matrix(13.682869,-13.95129,-13.95129,-13.682869,3256.2472,6285.0682)"
       gradientUnits="userSpaceOnUse"
       y2="0"
       x2="1"
       y1="0"
       x1="0">
      <stop
         id="stop1020"
         offset="0"
         style="stop-opacity:1;stop-color:#305072" />
      <stop
         id="stop1022"
         offset="1"
         style="stop-opacity:1;stop-color:#406f9a" />
    </linearGradient>
    <clipPath
       id="clipPath1034"
       clipPathUnits="userSpaceOnUse">
      <path
         id="path1032"
         d="m 3932.54,5623.5 v 58.04 c 6.14,-11.88 11.88,-23.13 17.09,-33.58 7.75,-15.52 -10.43,-18.87 -17.09,-24.46" />
    </clipPath>
    <clipPath
       id="clipPath1046"
       clipPathUnits="userSpaceOnUse">
      <path
         id="path1044"
         d="m 3897.53,5594.25 c -59.27,8.48 -123.17,20.7 -150.15,29.5 -24.36,7.95 -49.33,11.01 -97.75,23.82 h 232.44 v 5.57 h -247.24 c 6.52,3.94 15.5,7.41 20.68,9.93 2.03,0.99 20.48,10.06 20.48,10.06 -0.42,-0.2 -0.87,-0.3 -1.34,-0.3 -8.16,0 -24.6,29.79 -44.43,72.49 h 251.85 v 5.58 h -254.42 c -12.57,27.35 -26.38,59.44 -40.24,92.18 h 259.24 c 29.8,-55.61 61.13,-113.64 85.89,-161.54 v -58.04 c -0.24,-0.2 -0.47,-0.41 -0.68,-0.61 -11.46,-11.45 -25.8,-19.86 -34.33,-28.64 m -53.87,254.4 h -258.61 c -13.35,31.57 -26.7,63.54 -38.97,92.18 h 248.75 c 14.57,-28.05 31.39,-59.62 48.83,-92.18 m -51.72,97.75 H 3543.7 c -11.88,27.62 -22.65,51.84 -31.34,69.21 -4.02,8.05 -7.83,15.69 -11.46,22.98 h 243.11 c 10.58,-19.65 22.3,-41.53 31.65,-60.25 4.96,-9.91 10.42,-20.61 16.28,-31.94 m -50.93,97.75 h -242.89 c -17.52,35.19 -31.03,62.56 -45.65,92.19 h 242.71 c 12.78,-27.13 25.14,-53.23 29.75,-62.07 4.34,-8.32 9.95,-18.73 16.08,-30.12 m -48.45,97.76 h -242.84 c -11.03,22.37 -22.86,46.36 -37.62,76.15 -3.42,6.9 -54.7,72.05 -80.41,103.42 79.63,-26.23 119.52,-38.16 176.06,-56.82 46.55,-15.36 116.79,-41.82 153.18,-56.06 4.69,-9.41 18.11,-38 31.63,-66.69" />
    </clipPath>
    <clipPath
       id="clipPath1058"
       clipPathUnits="userSpaceOnUse">
      <path
         id="path1056"
         d="m 3695.18,6136.34 h -242.71 c -0.91,1.84 -1.83,3.7 -2.75,5.57 h 242.84 c 0.87,-1.86 1.75,-3.72 2.62,-5.57" />
    </clipPath>
    <clipPath
       id="clipPath1070"
       clipPathUnits="userSpaceOnUse">
      <path
         id="path1068"
         d="M 3744.01,6038.59 H 3500.9 c -0.94,1.87 -1.86,3.73 -2.78,5.56 h 242.89 c 0.99,-1.83 1.99,-3.69 3,-5.56" />
    </clipPath>
    <clipPath
       id="clipPath1082"
       clipPathUnits="userSpaceOnUse">
      <path
         id="path1080"
         d="m 3794.83,5940.83 h -248.75 c -0.8,1.87 -1.59,3.73 -2.38,5.57 h 248.24 c 0.95,-1.84 1.92,-3.7 2.89,-5.57" />
    </clipPath>
    <clipPath
       id="clipPath1094"
       clipPathUnits="userSpaceOnUse">
      <path
         id="path1092"
         d="m 3846.65,5843.08 h -259.24 c -0.79,1.85 -1.58,3.71 -2.36,5.57 h 258.61 c 1,-1.86 1.99,-3.71 2.99,-5.57" />
    </clipPath>
    <clipPath
       id="clipPath1106"
       clipPathUnits="userSpaceOnUse">
      <path
         id="path1104"
         d="m 3882.07,5745.32 h -251.85 c -0.85,1.83 -1.71,3.7 -2.57,5.58 h 254.42 v -5.58" />
    </clipPath>
    <clipPath
       id="clipPath1118"
       clipPathUnits="userSpaceOnUse">
      <path
         id="path1116"
         d="m 3882.07,5647.57 h -232.44 c -5.21,1.38 -10.7,2.87 -16.48,4.5 0.53,0.36 1.1,0.71 1.68,1.07 h 247.24 v -5.57" />
    </clipPath>
    <clipPath
       id="clipPath1882"
       clipPathUnits="userSpaceOnUse">
      <path
         id="path1880"
         d="m 4255.63,3005.46 c -4.66,0 -7,0 -7,0 h -16.52 -0.56 l 16.51,0.43 7.24,0.18 c 0.11,-0.2 0.22,-0.41 0.33,-0.61" />
    </clipPath>
    <clipPath
       id="clipPath2112"
       clipPathUnits="userSpaceOnUse">
      <path
         id="path2110"
         d="m 5293.09,2574.97 c -21.38,0 -35.8,10.78 -40.11,35.51 -0.21,5.67 -0.32,11.37 -0.32,17.1 0,120.9 48.99,230.32 128.22,309.55 79.23,79.23 188.64,128.22 309.55,128.22 12.58,0 25.04,-0.53 37.35,-1.57 22.35,-11.64 24.01,-37.94 11.23,-72.63 v 43.78 H 5645 v -65.18 h 84.84 c -8.29,-17.19 -19.33,-35.88 -32.5,-55.44 v 13.92 h -10.51 v -29.08 c -101.97,-143.17 -306.15,-324.18 -393.74,-324.18 m -10.39,90.98 v -66.25 h 46.88 v 66.25 h -46.88" />
    </clipPath>
    <clipPath
       id="clipPath2126"
       clipPathUnits="userSpaceOnUse">
      <path
         id="path2124"
         d="M 5729.84,2969.75 H 5645 v 65.18 h 94.01 v -43.78 c -2.51,-6.82 -5.58,-13.97 -9.17,-21.4" />
    </clipPath>
    <clipPath
       id="clipPath2142"
       clipPathUnits="userSpaceOnUse">
      <path
         id="path2140"
         d="m 5282.7,2599.7 h 46.8828 v 66.25 H 5282.7 Z" />
    </clipPath>
  </defs>
  <metadata
     id="metadata4626">
    <rdf:RDF>
      <cc:Work
         rdf:about="">
        <dc:format>image/svg+xml</dc:format>
        <dc:type
           rdf:resource="http://purl.org/dc/dcmitype/StillImage" />
        <dc:title></dc:title>
      </cc:Work>
    </rdf:RDF>
  </metadata>
  <g
     transform="translate(0,215)"
     id="layer1">
    <g
       style="stroke-width:0.08296966"
       id="g4276"
       transform="matrix(4.251889,0,0,-4.251889,-2170.1082,1160.5884)">
      <path
         id="path2066"
         style="fill:#2c4a4d;fill-opacity:1;fill-rule:nonzero;stroke:none;stroke-width:0.00829697"
         d="m 557.629,277.045 -12.305,21.313 12.305,21.313 h 24.61 l 12.306,-21.313 -12.306,-21.313 h -24.61" />
      <path
         id="path2068"
         style="fill:#2c4a4d;fill-opacity:1;fill-rule:nonzero;stroke:none;stroke-width:0.00829697"
         d="m 556.737,206.78 -12.305,21.314 12.305,21.313 h 24.611 l 12.304,-21.313 -12.304,-21.314 h -24.611" />
      <path
         id="path2084"
         style="fill:#8eb4af;fill-opacity:1;fill-rule:nonzero;stroke:none;stroke-width:0.00829697"
         d="m 618.921,263.417 c 0,-27.529 -22.317,-49.846 -49.845,-49.846 -27.529,0 -49.846,22.317 -49.846,49.846 0,27.528 22.317,49.845 49.846,49.845 27.528,0 49.845,-22.317 49.845,-49.845" />
      <path
         id="path2086"
         style="fill:#527487;fill-opacity:1;fill-rule:nonzero;stroke:none;stroke-width:0.00829697"
         d="m 613.319,262.758 c 0,-24.453 -19.823,-44.277 -44.276,-44.277 -24.454,0 -44.277,19.824 -44.277,44.277 0,24.454 19.823,44.277 44.277,44.277 24.453,0 44.276,-19.823 44.276,-44.277" />
      <path
         id="path2088"
         style="fill:#2a434d;fill-opacity:1;fill-rule:nonzero;stroke:none;stroke-width:0.00829697"
         d="m 613.319,262.758 h -0.5 c 0,-12.09 -4.899,-23.031 -12.822,-30.955 -7.923,-7.923 -18.864,-12.822 -30.954,-12.822 -12.091,0 -23.032,4.899 -30.955,12.822 -7.923,7.924 -12.822,18.865 -12.822,30.955 0,12.09 4.899,23.032 12.822,30.955 7.923,7.923 18.864,12.822 30.955,12.822 12.09,0 23.031,-4.899 30.954,-12.822 7.923,-7.923 12.822,-18.865 12.822,-30.955 h 0.5 0.5 c 0,24.73 -20.047,44.777 -44.776,44.777 -24.73,0 -44.777,-20.047 -44.777,-44.777 0,-24.73 20.047,-44.777 44.777,-44.778 24.729,0.001 44.776,20.048 44.776,44.778 h -0.5" />
      <path
         id="path2090"
         style="fill:#dde9ec;fill-opacity:1;fill-rule:nonzero;stroke:none;stroke-width:0.00829697"
         d="m 568.683,266.909 h 1.05078 v 25.9141 H 568.683 Z" />
      <path
         id="path2092"
         style="fill:#dde9ec;fill-opacity:1;fill-rule:nonzero;stroke:none;stroke-width:0.00829697"
         d="m 590.125,263.449 v -1.051 H 573.06 v 1.051 h 17.065" />
      <path
         id="path2094"
         style="fill:#dde9ec;fill-opacity:1;fill-rule:nonzero;stroke:none;stroke-width:0.00829697"
         d="m 570.626,263.146 c 0,-0.933 -0.755,-1.689 -1.688,-1.689 -0.932,0 -1.688,0.756 -1.688,1.689 0,0.931 0.756,1.687 1.688,1.687 0.933,0 1.688,-0.756 1.688,-1.687" />
      <g
         style="stroke-width:0.08296966"
         id="g2096">
        <text
           id="text2104"
           style="font-variant:normal;font-size:9.68634033px;font-family:AovelSans;-inkscape-font-specification:AovelSans-Rounded;writing-mode:lr-tb;fill:#e5f6f5;fill-opacity:1;fill-rule:nonzero;stroke:none;stroke-width:0.08296966"
           transform="matrix(1,0,0,-1,563.653,296.975)">
          <tspan
             style="stroke-width:0.08296966"
             id="tspan2098"
             y="0"
             x="0 5.3867283">12</tspan>
          <tspan
             style="stroke-width:0.08296966"
             id="tspan2100"
             y="36.8988"
             x="41.137901 -35.5961">39</tspan>
          <tspan
             style="stroke-width:0.08296966"
             id="tspan2102"
             y="75.416"
             x="3.2539001">6</tspan>
        </text>
      </g>
      <g
         style="stroke-width:0.08296966"
         id="g2106"
         transform="scale(0.1)">
        <g
           style="stroke-width:0.08296966"
           clip-path="url(#clipPath2112)"
           id="g2108">
          <path
             id="path2114"
             style="fill:#638394;fill-opacity:1;fill-rule:nonzero;stroke:none;stroke-width:0.08296966"
             d="m 5252.66,2574.97 h 499.129 v 490.383 H 5252.66 Z" />
        </g>
      </g>
      <path
         id="path2116"
         style="fill:#3c5660;fill-opacity:1;fill-rule:nonzero;stroke:none;stroke-width:0.00829697"
         d="m 525.298,261.048 c -0.088,0.51 -0.134,1.078 -0.134,1.71 0,24.454 19.823,44.277 44.277,44.277 1.414,0 2.515,-0.229 3.337,-0.657 -1.231,0.104 -2.477,0.157 -3.735,0.157 -12.091,0 -23.032,-4.899 -30.955,-12.822 -7.923,-7.923 -12.822,-18.865 -12.822,-30.955 0,-0.573 0.011,-1.143 0.032,-1.71" />
      <path
         id="path2118"
         style="fill:#e1ecee;fill-opacity:1;fill-rule:nonzero;stroke:none;stroke-width:0.00829697"
         d="m 568.683,289.915 v 2.908 h 1.051 v -1.392 c -0.337,-0.5 -0.687,-1.005 -1.051,-1.516" />
      <g
         style="stroke-width:0.08296966"
         id="g2120"
         transform="scale(0.1)">
        <g
           style="stroke-width:0.08296966"
           clip-path="url(#clipPath2126)"
           id="g2122">
          <path
             id="path2128"
             style="fill:#638394;fill-opacity:1;fill-rule:nonzero;stroke:none;stroke-width:0.08296966"
             d="m 5645,2969.75 h 94.0117 v 65.1797 H 5645 Z" />
          <g
             style="stroke-width:0.08296966"
             transform="scale(10)"
             id="g2130">
            <text
               id="text2134"
               style="font-variant:normal;font-size:9.68634033px;font-family:AovelSans;-inkscape-font-specification:AovelSans-Rounded;writing-mode:lr-tb;fill:#e8f7f6;fill-opacity:1;fill-rule:nonzero;stroke:none;stroke-width:0.08296966"
               transform="matrix(1,0,0,-1,563.653,296.975)">
              <tspan
                 style="stroke-width:0.08296966"
                 id="tspan2132"
                 y="0"
                 x="0 5.3867283">12</tspan>
            </text>
          </g>
        </g>
      </g>
      <g
         style="stroke-width:0.08296966"
         id="g2136"
         transform="scale(0.1)">
        <g
           style="stroke-width:0.08296966"
           clip-path="url(#clipPath2142)"
           id="g2138">
          <path
             id="path2144"
             style="fill:#638394;fill-opacity:1;fill-rule:nonzero;stroke:none;stroke-width:0.08296966"
             d="m 5282.7,2599.7 h 46.8828 v 66.25 H 5282.7 Z" />
          <g
             style="stroke-width:0.08296966"
             transform="scale(10)"
             id="g2146">
            <text
               id="text2150"
               style="font-variant:normal;font-size:9.68634033px;font-family:AovelSans;-inkscape-font-specification:AovelSans-Rounded;writing-mode:lr-tb;fill:#e8f7f6;fill-opacity:1;fill-rule:nonzero;stroke:none;stroke-width:0.08296966"
               transform="matrix(1,0,0,-1,528.057,260.076)">
              <tspan
                 style="stroke-width:0.08296966"
                 id="tspan2148"
                 y="0"
                 x="0">9</tspan>
            </text>
          </g>
        </g>
      </g>
    </g>
  </g>
</svg>
